<?xml version="1.0" encoding="utf-8"?>
<!-- Generator: Adobe Illustrator 24.3.0, SVG Export Plug-In . SVG Version: 6.00 Build 0)  -->
<svg version="1.1" xmlns="http://www.w3.org/2000/svg" xmlns:xlink="http://www.w3.org/1999/xlink" x="0px" y="0px"
	 viewBox="0 0 500 500" style="enable-background:new 0 0 500 500;" xml:space="preserve">
<style type="text/css">
	.st0{fill:#313131;}
	.st1{fill:#EFE7DB;}
	.st2{opacity:0.3;fill:url(#SVGID_1_);}
	.st3{fill:url(#SVGID_2_);}
	.st4{opacity:0.3;fill:url(#SVGID_3_);}
	.st5{opacity:0.3;fill:url(#SVGID_4_);}
	.st6{opacity:0.3;fill:url(#SVGID_5_);}
</style>
<g id="BACKGROUND">
	<rect class="st0" width="500" height="500"/>
</g>
<g id="OBJECTS">
	<g>
		<g>
			<path class="st1" d="M253.25,287.39c0,0,5.34-13.24,5.94-20.87c0.73-9.5-7.07-14.82-15.41-18.15
				c-12.96-5.16-22.35-10.65-25.44-24.87c-2.06-9.52-1.45-19.43-3.78-28.89c-2.91-11.82-9.46-23.61-18.7-32
				c16.09,6.75,33.84,18.85,47.72,33.75c-0.51,2.87-1.29,5.7-2.33,8.44c-1.88,4.94-4.59,9.66-5.28,14.9
				c-0.96,7.3,2.46,15.07,8.6,19.54c10.35,7.53,20.97,12.94,17.42,27.27C259.94,274.78,253.25,287.38,253.25,287.39z"/>
			<path class="st1" d="M253.25,287.39c0,0,5.34-13.24,5.94-20.87c0.73-9.5-7.07-14.82-15.41-18.15
				c-12.96-5.16-22.35-10.65-25.44-24.87c-2.06-9.52-1.45-19.43-3.78-28.89c-2.91-11.82-9.46-23.61-18.7-32
				c16.09,6.75,33.84,18.85,47.72,33.75c-0.51,2.87-1.29,5.7-2.33,8.44c-1.88,4.94-4.59,9.66-5.28,14.9
				c-0.96,7.3,2.46,15.07,8.6,19.54c10.35,7.53,20.97,12.94,17.42,27.27C259.94,274.78,253.25,287.38,253.25,287.39z"/>
			<linearGradient id="SVGID_1_" gradientUnits="userSpaceOnUse" x1="200.8953" y1="164.7456" x2="241.4082" y2="230.4961">
				<stop  offset="0" style="stop-color:#FFFFFF"/>
				<stop  offset="0.2358" style="stop-color:#FDFDFD"/>
				<stop  offset="0.3725" style="stop-color:#F4F4F4"/>
				<stop  offset="0.4839" style="stop-color:#E6E6E6"/>
				<stop  offset="0.5816" style="stop-color:#D2D2D2"/>
				<stop  offset="0.6705" style="stop-color:#B8B8B8"/>
				<stop  offset="0.7528" style="stop-color:#999999"/>
				<stop  offset="0.8303" style="stop-color:#737373"/>
				<stop  offset="0.9038" style="stop-color:#474747"/>
				<stop  offset="0.9717" style="stop-color:#171717"/>
				<stop  offset="1" style="stop-color:#000000"/>
			</linearGradient>
			<path class="st2" d="M253.25,287.39c0,0,5.34-13.24,5.94-20.87c0.73-9.5-7.07-14.82-15.41-18.15
				c-12.96-5.16-22.35-10.65-25.44-24.87c-2.06-9.52-1.45-19.43-3.78-28.89c-2.91-11.82-9.46-23.61-18.7-32
				c16.09,6.75,33.84,18.85,47.72,33.75c-0.51,2.87-1.29,5.7-2.33,8.44c-1.88,4.94-4.59,9.66-5.28,14.9
				c-0.96,7.3,2.46,15.07,8.6,19.54c10.35,7.53,20.97,12.94,17.42,27.27C259.94,274.78,253.25,287.38,253.25,287.39z"/>
			
				<linearGradient id="SVGID_2_" gradientUnits="userSpaceOnUse" x1="-683.8116" y1="-65.0736" x2="-590.7767" y2="-65.0736" gradientTransform="matrix(0.9269 0.3754 -0.3754 0.9269 825.4562 529.4901)">
				<stop  offset="0" style="stop-color:#E8A126"/>
				<stop  offset="0.0763" style="stop-color:#E59022"/>
				<stop  offset="0.2502" style="stop-color:#E06E1A"/>
				<stop  offset="0.4283" style="stop-color:#DC5414"/>
				<stop  offset="0.61" style="stop-color:#D9410F"/>
				<stop  offset="0.7975" style="stop-color:#D8360D"/>
				<stop  offset="1" style="stop-color:#D7320C"/>
			</linearGradient>
			<path class="st3" d="M306.15,226.35c-1.9-2.93-3.7-5.95-5.03-9.16c-1.68-4.05-2.37-8.44-2.73-12.74c-0.11-1.33-0.14-2.68,0-4.01
				c0.11-1.03,0.2-3.06,0.85-4c-4.54,5.35-8.24,13.73-6.96,20.6c-1.44-0.87-3-1.58-4.65-1.96c-3.73-0.88-7.38-0.03-10.84,1.55
				c-6.06-21.54-22.01-41.29-39.9-55.57c6.5,10.54,8.84,23.34,6.69,35.29c14.82,15.89,25.24,34.98,24.5,54.19
				c-0.52,13.37-6.65,26.38-14.82,36.85c6.92-6.76,13.37-13.39,18-21.99c3.6-6.7,5.92-13.9,9.14-20.75
				c1.87-3.99,5.56-13.34,11.71-11.95c2.49,0.56,4.14,3.06,4.47,5.52c0.32,2.45-0.4,4.9-1.11,7.26c2.69-1.96,4.58-4.8,5.54-7.94
				c2.29-0.63,4.73-1.37,6.28-3.1C309.5,231.95,307.66,228.69,306.15,226.35z M296.33,230.29c-0.99-1.36-1.1-2.98-0.78-4.61
				c2.49,2.04,3.57,4.33,3,7.72c0.01-0.91-1.09-1.78-1.63-2.39C296.71,230.78,296.51,230.54,296.33,230.29z"/>
			<path class="st1" d="M306.15,226.35c-1.9-2.93-3.7-5.95-5.03-9.16c-1.68-4.05-2.37-8.44-2.73-12.74c-0.11-1.33-0.14-2.68,0-4.01
				c0.11-1.03,0.2-3.06,0.85-4c-4.54,5.35-8.24,13.73-6.96,20.6c-1.44-0.87-3-1.58-4.65-1.96c-3.73-0.88-7.38-0.03-10.84,1.55
				c-6.06-21.54-22.01-41.29-39.9-55.57c6.5,10.54,8.84,23.34,6.69,35.29c14.82,15.89,25.24,34.98,24.5,54.19
				c-0.52,13.37-6.65,26.38-14.82,36.85c6.92-6.76,13.37-13.39,18-21.99c3.6-6.7,5.92-13.9,9.14-20.75
				c1.87-3.99,5.56-13.34,11.71-11.95c2.49,0.56,4.14,3.06,4.47,5.52c0.32,2.45-0.4,4.9-1.11,7.26c2.69-1.96,4.58-4.8,5.54-7.94
				c2.29-0.63,4.73-1.37,6.28-3.1C309.5,231.95,307.66,228.69,306.15,226.35z M296.33,230.29c-0.99-1.36-1.1-2.98-0.78-4.61
				c2.49,2.04,3.57,4.33,3,7.72c0.01-0.91-1.09-1.78-1.63-2.39C296.71,230.78,296.51,230.54,296.33,230.29z"/>
			<path class="st1" d="M254.24,286.15c-0.42,0.41-0.77,0.83-0.98,1.24c0-0.01,6.69-12.61,8.74-20.89
				c3.54-14.33-7.07-19.74-17.42-27.27c-6.14-4.47-9.56-12.23-8.6-19.54c0.68-5.24,3.39-9.96,5.28-14.9
				c1.04-2.74,1.82-5.56,2.33-8.44c14.82,15.89,25.24,34.98,24.5,54.19C267.55,263.91,262.41,275.68,254.24,286.15z"/>
			<linearGradient id="SVGID_3_" gradientUnits="userSpaceOnUse" x1="237.8508" y1="211.4334" x2="263.0883" y2="267.2216">
				<stop  offset="0" style="stop-color:#FFFFFF"/>
				<stop  offset="0.1096" style="stop-color:#D6D6D6"/>
				<stop  offset="0.2948" style="stop-color:#959595"/>
				<stop  offset="0.4718" style="stop-color:#606060"/>
				<stop  offset="0.6356" style="stop-color:#373737"/>
				<stop  offset="0.7832" style="stop-color:#191919"/>
				<stop  offset="0.9096" style="stop-color:#060606"/>
				<stop  offset="1" style="stop-color:#000000"/>
			</linearGradient>
			<path class="st4" d="M254.24,286.15c-0.42,0.41-0.77,0.83-0.98,1.24c0-0.01,6.69-12.61,8.74-20.89
				c3.54-14.33-7.07-19.74-17.42-27.27c-6.14-4.47-9.56-12.23-8.6-19.54c0.68-5.24,3.39-9.96,5.28-14.9
				c1.04-2.74,1.82-5.56,2.33-8.44c14.82,15.89,25.24,34.98,24.5,54.19C267.55,263.91,262.41,275.68,254.24,286.15z"/>
			<path class="st1" d="M223.42,165.48c-0.03-0.64-1.47-1.68-1.91-2.09c-2.31-2.19-4.92-4.01-7.37-6.02
				c-2.98-2.44-5.65-5.35-7.47-8.8c-0.08-0.15-0.16-0.31-0.24-0.47c-0.5-1.01-1.2-2.47-1.97-6.19
				C210.97,144.81,222.92,156.15,223.42,165.48z"/>
			<path class="st1" d="M245.66,296.44c-0.02-0.42-0.96-1.09-1.24-1.36c-1.5-1.42-3.2-2.61-4.79-3.92
				c-1.94-1.58-3.67-3.48-4.85-5.72c-0.05-0.1-0.1-0.2-0.15-0.3c-0.33-0.66-0.78-1.61-1.28-4.02
				C237.56,283,245.33,290.37,245.66,296.44z"/>
			<linearGradient id="SVGID_4_" gradientUnits="userSpaceOnUse" x1="233.3414" y1="288.7794" x2="245.6626" y2="288.7794">
				<stop  offset="0" style="stop-color:#FFFFFF"/>
				<stop  offset="0.1096" style="stop-color:#D6D6D6"/>
				<stop  offset="0.2948" style="stop-color:#959595"/>
				<stop  offset="0.4718" style="stop-color:#606060"/>
				<stop  offset="0.6356" style="stop-color:#373737"/>
				<stop  offset="0.7832" style="stop-color:#191919"/>
				<stop  offset="0.9096" style="stop-color:#060606"/>
				<stop  offset="1" style="stop-color:#000000"/>
			</linearGradient>
			<path class="st5" d="M245.66,296.44c-0.02-0.42-0.96-1.09-1.24-1.36c-1.5-1.42-3.2-2.61-4.79-3.92
				c-1.94-1.58-3.67-3.48-4.85-5.72c-0.05-0.1-0.1-0.2-0.15-0.3c-0.33-0.66-0.78-1.61-1.28-4.02
				C237.56,283,245.33,290.37,245.66,296.44z"/>
			<path class="st1" d="M248.94,291.42c2.87-15.32-0.77-26.72-3.08-29.95c-5.79-8.09-15.19-5.91-24.24-5.77
				c-8.19,0.12-14.22-3.01-18.05-6.8c1.33,1.32,1.94,3.24,2.99,4.77c3.67,5.36,9.35,8.25,15.76,8.7c6.94,0.49,12.9,0.59,17.58,6.45
				C244.96,275.17,247.14,283.66,248.94,291.42z"/>
			<linearGradient id="SVGID_5_" gradientUnits="userSpaceOnUse" x1="203.5705" y1="270.162" x2="250.0005" y2="270.162">
				<stop  offset="0" style="stop-color:#FFFFFF"/>
				<stop  offset="0.1096" style="stop-color:#D6D6D6"/>
				<stop  offset="0.2948" style="stop-color:#959595"/>
				<stop  offset="0.4718" style="stop-color:#606060"/>
				<stop  offset="0.6356" style="stop-color:#373737"/>
				<stop  offset="0.7832" style="stop-color:#191919"/>
				<stop  offset="0.9096" style="stop-color:#060606"/>
				<stop  offset="1" style="stop-color:#000000"/>
			</linearGradient>
			<path class="st6" d="M248.94,291.42c2.87-15.32-0.77-26.72-3.08-29.95c-5.79-8.09-15.19-5.91-24.24-5.77
				c-8.19,0.12-14.22-3.01-18.05-6.8c1.33,1.32,1.94,3.24,2.99,4.77c3.67,5.36,9.35,8.25,15.76,8.7c6.94,0.49,12.9,0.59,17.58,6.45
				C244.96,275.17,247.14,283.66,248.94,291.42z"/>
		</g>
	</g>
</g>
</svg>
