<svg xmlns="http://www.w3.org/2000/svg" xmlns:xlink="http://www.w3.org/1999/xlink" viewBox="0 0 112.45 154.52"><defs><style>.cls-1{fill:#efe7db;}.cls-2,.cls-4,.cls-5,.cls-6{opacity:0.3;}.cls-2{fill:url(#linear-gradient);}.cls-3{fill:url(#linear-gradient-2);}.cls-4{fill:url(#linear-gradient-3);}.cls-5{fill:url(#linear-gradient-4);}.cls-6{fill:url(#linear-gradient-5);}</style><linearGradient id="linear-gradient" x1="5.04" y1="22.83" x2="45.56" y2="88.58" gradientUnits="userSpaceOnUse"><stop offset="0" stop-color="#fff"/><stop offset="0.24" stop-color="#fdfdfd"/><stop offset="0.37" stop-color="#f4f4f4"/><stop offset="0.48" stop-color="#e6e6e6"/><stop offset="0.58" stop-color="#d2d2d2"/><stop offset="0.67" stop-color="#b8b8b8"/><stop offset="0.75" stop-color="#999"/><stop offset="0.83" stop-color="#737373"/><stop offset="0.9" stop-color="#474747"/><stop offset="0.97" stop-color="#171717"/><stop offset="1"/></linearGradient><linearGradient id="linear-gradient-2" x1="-879.66" y1="-206.99" x2="-786.63" y2="-206.99" gradientTransform="translate(757.86 592.64) rotate(22.05)" gradientUnits="userSpaceOnUse"><stop offset="0" stop-color="#e8a126"/><stop offset="0.08" stop-color="#e59022"/><stop offset="0.25" stop-color="#e06e1a"/><stop offset="0.43" stop-color="#dc5414"/><stop offset="0.61" stop-color="#d9410f"/><stop offset="0.8" stop-color="#d8360d"/><stop offset="1" stop-color="#d7320c"/></linearGradient><linearGradient id="linear-gradient-3" x1="42" y1="69.52" x2="67.24" y2="125.31" gradientUnits="userSpaceOnUse"><stop offset="0" stop-color="#fff"/><stop offset="0.11" stop-color="#d6d6d6"/><stop offset="0.29" stop-color="#969696"/><stop offset="0.47" stop-color="#606060"/><stop offset="0.64" stop-color="#373737"/><stop offset="0.78" stop-color="#191919"/><stop offset="0.91" stop-color="#060606"/><stop offset="1"/></linearGradient><linearGradient id="linear-gradient-4" x1="37.49" y1="146.86" x2="49.81" y2="146.86" xlink:href="#linear-gradient-3"/><linearGradient id="linear-gradient-5" x1="7.72" y1="128.25" x2="54.15" y2="128.25" xlink:href="#linear-gradient-3"/></defs><g id="Layer_2" data-name="Layer 2"><g id="OBJECTS"><path class="cls-1" d="M57.4,145.47s5.34-13.24,5.94-20.87c.72-9.5-7.07-14.83-15.42-18.15C35,101.29,25.57,95.8,22.48,81.58,20.42,72.05,21,62.15,18.7,52.68A64.83,64.83,0,0,0,0,20.69c16.09,6.75,33.84,18.84,47.72,33.74a46.5,46.5,0,0,1-2.33,8.44c-1.88,4.94-4.59,9.66-5.27,14.9a21.32,21.32,0,0,0,8.6,19.54c10.35,7.53,21,12.94,17.42,27.27C64.09,132.86,57.4,145.46,57.4,145.47Z"/><path class="cls-1" d="M57.4,145.47s5.34-13.24,5.94-20.87c.72-9.5-7.07-14.83-15.42-18.15C35,101.29,25.57,95.8,22.48,81.58,20.42,72.05,21,62.15,18.7,52.68A64.83,64.83,0,0,0,0,20.69c16.09,6.75,33.84,18.84,47.72,33.74a46.5,46.5,0,0,1-2.33,8.44c-1.88,4.94-4.59,9.66-5.27,14.9a21.32,21.32,0,0,0,8.6,19.54c10.35,7.53,21,12.94,17.42,27.27C64.09,132.86,57.4,145.46,57.4,145.47Z"/><path class="cls-2" d="M57.4,145.47s5.34-13.24,5.94-20.87c.72-9.5-7.07-14.83-15.42-18.15C35,101.29,25.57,95.8,22.48,81.58,20.42,72.05,21,62.15,18.7,52.68A64.83,64.83,0,0,0,0,20.69c16.09,6.75,33.84,18.84,47.72,33.74a46.5,46.5,0,0,1-2.33,8.44c-1.88,4.94-4.59,9.66-5.27,14.9a21.32,21.32,0,0,0,8.6,19.54c10.35,7.53,21,12.94,17.42,27.27C64.09,132.86,57.4,145.46,57.4,145.47Z"/><path class="cls-3" d="M110.29,84.43a58.3,58.3,0,0,1-5-9.16,42.69,42.69,0,0,1-2.73-12.74,21.49,21.49,0,0,1,0-4c.11-1,.2-3.06.84-4-4.53,5.35-8.24,13.73-7,20.6a16,16,0,0,0-4.65-2c-3.73-.88-7.38,0-10.83,1.55-6.06-21.53-22-41.29-39.9-55.57a50.62,50.62,0,0,1,6.69,35.29c14.83,15.89,25.24,35,24.5,54.19C71.7,122,65.57,135,57.4,145.47c6.92-6.76,13.37-13.39,18-22,3.6-6.7,5.92-13.9,9.14-20.75,1.87-4,5.56-13.34,11.71-11.94,2.49.56,4.14,3,4.46,5.51s-.4,4.9-1.11,7.26a15.43,15.43,0,0,0,5.54-7.94c2.29-.64,4.73-1.38,6.28-3.1C113.65,90,111.81,86.77,110.29,84.43Zm-9.81,3.95a5.72,5.72,0,0,1-.78-4.62,7.44,7.44,0,0,1,3,7.73c0-.92-1.09-1.78-1.63-2.39C100.86,88.86,100.66,88.62,100.48,88.38Z"/><path class="cls-1" d="M110.29,84.43a58.3,58.3,0,0,1-5-9.16,42.69,42.69,0,0,1-2.73-12.74,21.49,21.49,0,0,1,0-4c.11-1,.2-3.06.84-4-4.53,5.35-8.24,13.73-7,20.6a16,16,0,0,0-4.65-2c-3.73-.88-7.38,0-10.83,1.55-6.06-21.53-22-41.29-39.9-55.57a50.62,50.62,0,0,1,6.69,35.29c14.83,15.89,25.24,35,24.5,54.19C71.7,122,65.57,135,57.4,145.47c6.92-6.76,13.37-13.39,18-22,3.6-6.7,5.92-13.9,9.14-20.75,1.87-4,5.56-13.34,11.71-11.94,2.49.56,4.14,3,4.46,5.51s-.4,4.9-1.11,7.26a15.43,15.43,0,0,0,5.54-7.94c2.29-.64,4.73-1.38,6.28-3.1C113.65,90,111.81,86.77,110.29,84.43Zm-9.81,3.95a5.72,5.72,0,0,1-.78-4.62,7.44,7.44,0,0,1,3,7.73c0-.92-1.09-1.78-1.63-2.39C100.86,88.86,100.66,88.62,100.48,88.38Z"/><path class="cls-1" d="M58.38,144.23a5.6,5.6,0,0,0-1,1.24s6.69-12.61,8.74-20.89c3.55-14.33-7.07-19.74-17.42-27.27a21.32,21.32,0,0,1-8.6-19.54c.68-5.24,3.39-10,5.27-14.9a46.5,46.5,0,0,0,2.33-8.44c14.83,15.89,25.24,35,24.5,54.19C71.7,122,66.56,133.76,58.38,144.23Z"/><path class="cls-4" d="M58.38,144.23a5.6,5.6,0,0,0-1,1.24s6.69-12.61,8.74-20.89c3.55-14.33-7.07-19.74-17.42-27.27a21.32,21.32,0,0,1-8.6-19.54c.68-5.24,3.39-10,5.27-14.9a46.5,46.5,0,0,0,2.33-8.44c14.83,15.89,25.24,35,24.5,54.19C71.7,122,66.56,133.76,58.38,144.23Z"/><path class="cls-1" d="M27.57,23.57c0-.64-1.47-1.69-1.9-2.09-2.31-2.19-4.92-4-7.38-6a29,29,0,0,1-7.46-8.79l-.24-.47A22.68,22.68,0,0,1,8.62,0C15.11,2.9,27.07,14.23,27.57,23.57Z"/><path class="cls-1" d="M49.81,154.52c0-.41-1-1.09-1.24-1.36-1.5-1.42-3.19-2.6-4.79-3.91a18.93,18.93,0,0,1-4.85-5.72c-.06-.1-.11-.2-.16-.3a14.65,14.65,0,0,1-1.28-4C41.71,141.09,49.48,148.45,49.81,154.52Z"/><path class="cls-5" d="M49.81,154.52c0-.41-1-1.09-1.24-1.36-1.5-1.42-3.19-2.6-4.79-3.91a18.93,18.93,0,0,1-4.85-5.72c-.06-.1-.11-.2-.16-.3a14.65,14.65,0,0,1-1.28-4C41.71,141.09,49.48,148.45,49.81,154.52Z"/><path class="cls-1" d="M53.09,149.51c2.87-15.32-.77-26.73-3.08-29.95-5.79-8.09-15.19-5.91-24.24-5.77-8.19.12-14.22-3-18-6.8,1.33,1.32,1.94,3.24,3,4.77a20.29,20.29,0,0,0,15.76,8.7c6.93.49,12.9.59,17.57,6.45C49.11,133.25,51.29,141.74,53.09,149.51Z"/><path class="cls-6" d="M53.09,149.51c2.87-15.32-.77-26.73-3.08-29.95-5.79-8.09-15.19-5.91-24.24-5.77-8.19.12-14.22-3-18-6.8,1.33,1.32,1.94,3.24,3,4.77a20.29,20.29,0,0,0,15.76,8.7c6.93.49,12.9.59,17.57,6.45C49.11,133.25,51.29,141.74,53.09,149.51Z"/></g></g></svg>